<!DOCTYPE svg PUBLIC "-//W3C//DTD SVG 1.1//EN" "http://www.w3.org/Graphics/SVG/1.1/DTD/svg11.dtd">
<!-- Uploaded to: SVG Repo, www.svgrepo.com, Transformed by: SVG Repo Mixer Tools -->
<svg width="235px" height="235px" viewBox="-6.72 -6.72 61.44 61.44" xmlns="http://www.w3.org/2000/svg" fill="#ffffff" stroke="#ffffff" stroke-width="0.00048000000000000007">
<g id="SVGRepo_bgCarrier" stroke-width="0">
<rect x="-6.72" y="-6.72" width="61.44" height="61.44" rx="30.72" fill="#000000" strokewidth="0"/>
</g>
<g id="SVGRepo_tracerCarrier" stroke-linecap="round" stroke-linejoin="round"/>
<g id="SVGRepo_iconCarrier"> <title>youtube</title> <g id="Layer_2" data-name="Layer 2"> <g id="invisible_box" data-name="invisible box"> <rect width="48" height="48" fill="none"/> <rect width="48" height="48" fill="none"/> </g> <g id="icons_Q2" data-name="icons Q2"> <path d="M45.1,12.8a5.5,5.5,0,0,0-3.9-3.9C37.8,8,24,8,24,8S10.2,8,6.8,8.9a5.5,5.5,0,0,0-3.9,3.9C2,16.2,2,23.4,2,23.4s0,7.2.9,10.6a5.5,5.5,0,0,0,3.9,3.9c3.4.9,17.2.9,17.2.9s13.8,0,17.2-.9A5.5,5.5,0,0,0,45.1,34c.9-3.4.9-10.6.9-10.6S46,16.2,45.1,12.8ZM19.6,30V16.8L31,23.4Z"/> </g> </g> </g>
</svg>